<svg xmlns="http://www.w3.org/2000/svg" width="76" height="84" viewBox="0 0 76 84" role="img" aria-label="民生银行地图点位">
  <defs>
    <filter id="shadow" x="-35%" y="-25%" width="170%" height="170%">
      <feDropShadow dx="0" dy="5" stdDeviation="4" flood-color="#17202B" flood-opacity=".22"/>
    </filter>
    <linearGradient id="brand" x1="18" y1="8" x2="42" y2="48" gradientUnits="userSpaceOnUse">
      <stop stop-color="#22B8B8"/>
      <stop offset="1" stop-color="#008C8C"/>
    </linearGradient>
  </defs>
  <circle cx="38" cy="34" r="32" fill="#22B8B8" opacity=".14"/>
       <circle cx="38" cy="34" r="24" fill="#22B8B8" opacity=".18"/>
  <ellipse cx="38" cy="68" rx="18" ry="5" fill="#17202B" opacity=".16"/>
  <path filter="url(#shadow)" d="M38 4c-13.6 0-24.6 10.7-24.6 23.9 0 17.4 20.8 31.9 23.2 33.5.8.5 2 .5 2.8 0 2.4-1.6 23.2-16.1 23.2-33.5C62.6 14.7 51.6 4 38 4Z" fill="url(#brand)" stroke="#FFFFFF" stroke-width="3"/>
  <circle cx="38" cy="28" r="16" fill="#FFFFFF"/>
  <circle cx="38" cy="28" r="13" fill="#008C8C" opacity=".08"/>
  <text x="38" y="33.5" text-anchor="middle" font-family="Arial, 'Microsoft YaHei', sans-serif" font-size="17" font-weight="700" fill="#008C8C">民</text>
</svg>
